<svg id="Layer_1" data-name="Layer 1" xmlns="http://www.w3.org/2000/svg" xmlns:xlink="http://www.w3.org/1999/xlink" viewBox="0 0 128.13 136.7"><defs><style>.cls-1,.cls-2,.cls-3,.cls-4,.cls-5{stroke:#231f20;stroke-miterlimit:10;}.cls-1{fill:url(#linear-gradient);}.cls-2{fill:url(#New_Gradient_Swatch_copy);}.cls-3{fill:url(#New_Gradient_Swatch);}.cls-4{fill:url(#New_Gradient_Swatch-2);}.cls-5{fill:url(#linear-gradient-2);}</style><linearGradient id="linear-gradient" x1="49.04" y1="32.22" x2="49.04" y2="94.1" gradientUnits="userSpaceOnUse"><stop offset="0" stop-color="#40c7f4"/><stop offset="1" stop-color="#457bbe"/></linearGradient><linearGradient id="New_Gradient_Swatch_copy" x1="83" y1="32.22" x2="83" y2="94.1" xlink:href="#linear-gradient"/><linearGradient id="New_Gradient_Swatch" x1="116.81" y1="32.22" x2="116.81" y2="60.29" gradientUnits="userSpaceOnUse"><stop offset="0" stop-color="#f26b6b"/><stop offset="0.43" stop-color="#ef3a47"/></linearGradient><linearGradient id="New_Gradient_Swatch-2" x1="150.78" y1="32.22" x2="150.78" y2="60.29" xlink:href="#New_Gradient_Swatch"/><linearGradient id="linear-gradient-2" x1="100" y1="68.58" x2="100" y2="167.78" gradientUnits="userSpaceOnUse"><stop offset="0" stop-color="#409fd8"/><stop offset="1" stop-color="#426bb3"/></linearGradient></defs><path class="cls-1" d="M36.44,32.22H61.63V94.1l-25.19-.32Z" transform="translate(-35.94 -31.72)"/><path class="cls-2" d="M70.25,32.22H95.76L95.44,94.1l-25.19-.32Z" transform="translate(-35.94 -31.72)"/><path class="cls-3" d="M104.06,32.22h25.51V60.29L104.06,60Z" transform="translate(-35.94 -31.72)"/><path class="cls-4" d="M138.18,32.22h25.2V60.29h-25.2Z" transform="translate(-35.94 -31.72)"/><path class="cls-5" d="M163.38,68.58v35.09c0,4,.7,10.12-.64,13.08l-62.83,51-63.47-52V102.71l93.13-.32V94.1l-25.51-.32.31-25.2Z" transform="translate(-35.94 -31.72)"/></svg>