<?xml version="1.0" encoding="utf-8"?>
<!-- Generator: Adobe Illustrator 24.0.3, SVG Export Plug-In . SVG Version: 6.00 Build 0)  -->
<svg version="1.1" id="Layer_1" focusable="false" xmlns="http://www.w3.org/2000/svg" xmlns:xlink="http://www.w3.org/1999/xlink"
	 x="0px" y="0px" viewBox="0 0 24 24" style="enable-background:new 0 0 24 24;" xml:space="preserve">
<style type="text/css">
	.st0{fill:#FFFFFF;}
</style>
<path class="st0" d="M20,19V8h-9.2l-0.5-1.3L9.9,5.6C9.8,5.3,9.3,5,9,5H4c0,0,0,14,0,14H20z M12.2,6H20c1.1,0,2,0.9,2,2v11
	c0,1.1-0.9,2-2,2H4c-1.1,0-2-0.9-2-2V5c0-1.1,0.9-2,2-2h5c1.1,0,2.3,0.8,2.7,1.9L12.2,6z"/>
</svg>
