<?xml version="1.0" encoding="utf-8"?>
<!-- Generator: Adobe Illustrator 24.0.3, SVG Export Plug-In . SVG Version: 6.00 Build 0)  -->
<svg version="1.1" id="Layer_1" focusable="false" xmlns="http://www.w3.org/2000/svg" xmlns:xlink="http://www.w3.org/1999/xlink"
	 x="0px" y="0px" viewBox="0 0 148 32" style="enable-background:new 0 0 148 32;" xml:space="preserve">
<style type="text/css">
	.st0{fill-rule:evenodd;clip-rule:evenodd;fill:#FFFFFF;}
</style>
<g>
	<path class="st0" d="M5.1,19c0,1.7-0.7,2.9-2.7,2.9c-0.9,0-1.7-0.2-2.4-0.4v2.3c0.6,0.2,1.6,0.4,2.8,0.4c3.2,0,4.6-2.2,4.6-5.3V6.9
		H5.1V19z M10.9,7.6c0,1,0.6,1.6,1.6,1.6c0.9,0,1.6-0.6,1.6-1.6S13.4,6,12.5,6C11.5,6,10.9,6.6,10.9,7.6z M11.3,24h2.2V11h-2.2V24z
		 M16.9,24h2.2v-7.7c0-2.8,1.7-3.6,4.6-3.3v-2.2c-2.5-0.2-3.8,0.9-4.6,2.5V11h-2.2V24z M34.5,24v-2.3c-0.8,1.7-2.4,2.6-4.4,2.6
		c-3.5,0-5.2-2.9-5.2-6.8c0-3.7,1.8-6.8,5.5-6.8c1.9,0,3.4,0.9,4.1,2.5V11h2.2v13H34.5z M27.1,17.5c0,3.1,1.2,4.7,3.6,4.7
		c2,0,3.8-1.3,3.8-4.2v-1c0-2.9-1.6-4.2-3.5-4.2C28.4,12.8,27.1,14.5,27.1,17.5z M55.9,19.3c0-3.1-2-4.2-5.6-5.1
		c-3-0.8-4.1-1.5-4.1-2.9c0-1.6,1.3-2.3,3.6-2.3c1.8,0,3.6,0.3,5.3,1.3V7.9c-1.2-0.7-2.8-1.2-5.2-1.2c-4,0-6,2-6,4.6
		c0,2.8,1.7,4.1,5.6,5.1c3.2,0.8,4.2,1.6,4.2,3.1c0,1.5-1,2.5-3.5,2.5c-2.3,0-4.7-0.6-6.3-1.4v2.4c1.3,0.7,2.9,1.3,6.2,1.3
		C54.2,24.3,55.9,22.3,55.9,19.3z M64.1,24.3c-3.9,0-6.2-2.9-6.2-6.8s2.3-6.7,6.2-6.7c3.9,0,6.1,2.8,6.1,6.7S68,24.3,64.1,24.3z
		 M64.1,12.8c-2.8,0-4,2.2-4,4.7s1.2,4.7,4,4.7c2.8,0,4-2.2,4-4.7S66.8,12.8,64.1,12.8z M75.9,9.6c0-1.2,0.7-2,2.1-2
		c0.5,0,1,0.1,1.4,0.1V5.7c-0.4-0.1-0.8-0.2-1.5-0.2c-2.8,0-4.1,1.6-4.1,4.1V11h-2.1v2.1h2.1V24h2.2V13.1h3.4V11h-3.4V9.6z
		 M84.8,19.9v-6.8h3.5V11h-3.5V8.2h-2.2V11h-2.1v2.1h2.1v6.9c0,2.4,1.4,4.1,4.1,4.1c0.7,0,1.1-0.1,1.5-0.2v-2.2
		c-0.4,0.1-0.9,0.2-1.4,0.2C85.5,21.8,84.8,21,84.8,19.9z M94.4,24h2.9l2.2-6.3l1.2-4l1.2,4l2.2,6.3h2.9l4.8-13h-2.5l-3.7,11
		l-3.8-11h-2.1l-3.8,11l-3.7-11h-2.5L94.4,24z M122.5,24v-2.3c-0.8,1.7-2.4,2.6-4.4,2.6c-3.5,0-5.2-2.9-5.2-6.8
		c0-3.7,1.8-6.8,5.5-6.8c1.9,0,3.4,0.9,4.1,2.5V11h2.2v13H122.5z M115.2,17.5c0,3.1,1.2,4.7,3.6,4.7c2,0,3.8-1.3,3.8-4.2v-1
		c0-2.9-1.6-4.2-3.5-4.2C116.5,12.8,115.2,14.5,115.2,17.5z M128.2,24h2.2v-7.7c0-2.8,1.7-3.6,4.6-3.3v-2.2
		c-2.5-0.2-3.8,0.9-4.6,2.5V11h-2.2V24z M147.1,23.5c-1.1,0.6-2.7,0.8-4,0.8c-4.9,0-7-2.8-7-6.8c0-3.9,2.2-6.7,6.1-6.7
		c4,0,5.6,2.8,5.6,6.7v1h-9.5c0.3,2.2,1.7,3.6,4.8,3.6c1.5,0,2.8-0.3,4-0.7V23.5z M142.1,12.8c-2.4,0-3.6,1.5-3.8,3.8h7.3
		C145.4,14.1,144.4,12.8,142.1,12.8z"/>
</g>
</svg>
