<?xml version="1.0" encoding="utf-8"?>
<!-- Generator: Adobe Illustrator 24.0.3, SVG Export Plug-In . SVG Version: 6.00 Build 0)  -->
<svg version="1.1" id="Layer_1" focusable="false" xmlns="http://www.w3.org/2000/svg" xmlns:xlink="http://www.w3.org/1999/xlink"
	 x="0px" y="0px" viewBox="0 0 24 24" style="enable-background:new 0 0 24 24;" xml:space="preserve">
<style type="text/css">
	.st0{fill:#FFFFFF;}
	.st1{fill-rule:evenodd;clip-rule:evenodd;fill:#FFFFFF;}
</style>
<g>
	<path class="st0" d="M5,19h14V5H5V19z M3,5c0-1.1,0.9-2,2-2h14c1.1,0,2,0.9,2,2v14c0,1.1-0.9,2-2,2H5c-1.1,0-2-0.9-2-2l0,0V5z"/>
	<path class="st1" d="M9.2,17H4v1.5C4,19.3,4.7,20,5.5,20c0,0,0,0,0,0h13c0.8,0,1.5-0.7,1.5-1.5V17h-5.2c-0.6,1.6-2.3,2.4-3.8,1.8
		C10.1,18.5,9.5,17.9,9.2,17z M7,12h10v2H7V12z M7,8h10v2H7V8z"/>
</g>
</svg>
