<?xml version="1.0" encoding="utf-8"?>
<!-- Generator: Adobe Illustrator 24.0.3, SVG Export Plug-In . SVG Version: 6.00 Build 0)  -->
<svg version="1.1" id="Layer_1" focusable="false" xmlns="http://www.w3.org/2000/svg" xmlns:xlink="http://www.w3.org/1999/xlink"
	 x="0px" y="0px" viewBox="0 0 24 24" style="enable-background:new 0 0 24 24;" xml:space="preserve">
<style type="text/css">
	.st0{fill-rule:evenodd;clip-rule:evenodd;fill:#FFFFFF;}
</style>
<g>
	<circle class="st0" cx="16" cy="9" r="3"/>
	<circle class="st0" cx="8" cy="6" r="3"/>
	<path class="st0" d="M11,15c0-1.1,0.9-2,2-2h6c1.1,0,2,0.9,2,2v3.7c0,3-10,3-10,0V15z"/>
	<path class="st0" d="M13,12c0-1.1-0.9-2-2-2c0,0,0,0,0,0H5c-1.1,0-2,0.9-2,2v3.8c0,1.9,4.1,2.5,7,2V15C10,13.3,11.3,12,13,12
		C13,12,13,12,13,12L13,12z"/>
</g>
</svg>
