<?xml version="1.0" encoding="utf-8"?>
<!-- Generator: Adobe Illustrator 24.0.3, SVG Export Plug-In . SVG Version: 6.00 Build 0)  -->
<svg version="1.1" id="Layer_1" focusable="false" xmlns="http://www.w3.org/2000/svg" xmlns:xlink="http://www.w3.org/1999/xlink"
	 x="0px" y="0px" viewBox="0 0 24 24" style="enable-background:new 0 0 24 24;" xml:space="preserve">
<style type="text/css">
	.st0{fill-rule:evenodd;clip-rule:evenodd;fill:#FFFFFF;}
</style>
<path class="st0" d="M16.4,15.1l3.9,4c0.4,0.4,0.4,1-0.1,1.4c-0.4,0.4-1,0.4-1.4,0l-3.9-4C11.7,19,7,18.3,4.5,15S2.7,7,6,4.5
	S14,2.7,16.5,6C18.5,8.7,18.5,12.4,16.4,15.1z M10.5,16c3,0,5.5-2.5,5.5-5.5S13.5,5,10.5,5S5,7.5,5,10.5S7.5,16,10.5,16z"/>
</svg>
