<?xml version="1.0" encoding="utf-8"?>
<!-- Generator: Adobe Illustrator 24.0.3, SVG Export Plug-In . SVG Version: 6.00 Build 0)  -->
<svg version="1.1" id="Layer_1" focusable="false" xmlns="http://www.w3.org/2000/svg" xmlns:xlink="http://www.w3.org/1999/xlink"
	 x="0px" y="0px" viewBox="0 0 24 24" style="enable-background:new 0 0 24 24;" xml:space="preserve">
<style type="text/css">
	.st0{fill-rule:evenodd;clip-rule:evenodd;fill:#FFFFFF;}
</style>
<path class="st0" d="M13,11V4c0-0.6-0.4-1-1-1c-0.6,0-1,0.4-1,1v7H4c-0.6,0-1,0.4-1,1c0,0.6,0.4,1,1,1h7v7c0,0.5,0.4,1,1,1
	c0.6,0,1-0.4,1-1v-7h7c0.6,0,1-0.4,1-1c0-0.6-0.4-1-1-1H13z"/>
</svg>
