<?xml version="1.0" encoding="utf-8"?>
<!-- Generator: Adobe Illustrator 24.0.3, SVG Export Plug-In . SVG Version: 6.00 Build 0)  -->
<svg version="1.1" id="Layer_1" focusable="false" xmlns="http://www.w3.org/2000/svg" xmlns:xlink="http://www.w3.org/1999/xlink"
	 x="0px" y="0px" viewBox="0 0 24 24" style="enable-background:new 0 0 24 24;" xml:space="preserve">
<style type="text/css">
	.st0{fill-rule:evenodd;clip-rule:evenodd;fill:#FFFFFF;}
	.st1{fill-rule:evenodd;clip-rule:evenodd;fill:#1C63CE;}
</style>
<g>
	<circle class="st0" cx="12" cy="12" r="10"/>
	<circle class="st1" cx="12" cy="18" r="1"/>
	<path class="st1" d="M15.9,9.1c-0.4-1.5-1.5-2.6-3-2.9C10.3,5.5,8,7.4,8,9.9l0,0.1c0,0.5,0.5,0.9,1,0.9c0.6,0,1-0.4,1-1
		c0-1.1,0.9-2,2-2c1.1,0,1.9,0.9,2,2c0,1.1-0.9,2-2,2h0c-0.5,0-1,0.4-1,1v2c0,0.6,0.4,1,1,1s1-0.4,1-1l0,0v-0.8
		c0-0.2,0.1-0.4,0.4-0.5C15.3,13.1,16.4,11,15.9,9.1"/>
</g>
</svg>
