<?xml version="1.0" encoding="utf-8"?>
<!-- Generator: Adobe Illustrator 24.0.3, SVG Export Plug-In . SVG Version: 6.00 Build 0)  -->
<svg version="1.1" id="Layer_1" focusable="false" xmlns="http://www.w3.org/2000/svg" xmlns:xlink="http://www.w3.org/1999/xlink"
	 x="0px" y="0px" viewBox="0 0 24 24" style="enable-background:new 0 0 24 24;" xml:space="preserve">
<style type="text/css">
	.st0{fill-rule:evenodd;clip-rule:evenodd;fill:#FFFFFF;}
</style>
<path class="st0" d="M6.5,17.7c0.8,0.8,2,0.8,2.8,0c0,0,0,0,0,0l-2.8-2.8C5.7,15.6,5.7,16.9,6.5,17.7C6.5,17.7,6.5,17.7,6.5,17.7z
	 M11.4,5.5l-0.7,0.7C9.9,7,8.4,8,7.5,8.5l-3,1.5c-0.5,0.2-0.6,0.8-0.2,1.2l8.6,8.6c0.4,0.4,0.9,0.3,1.2-0.2l1.5-3
	c0.5-1,1.5-2.4,2.3-3.2l0.7-0.7c1.7-1.7,2-4.4,0.6-6.4c0.4-0.3,0.5-1,0.2-1.4s-1-0.5-1.4-0.2c0,0-0.1,0.1-0.1,0.1c0,0,0,0-0.1,0.1
	C16.9,4.3,15.9,4,15,4C13.6,4,12.3,4.5,11.4,5.5L11.4,5.5z"/>
</svg>
