<?xml version="1.0" encoding="utf-8"?>
<!-- Generator: Adobe Illustrator 24.0.3, SVG Export Plug-In . SVG Version: 6.00 Build 0)  -->
<svg version="1.1" id="Layer_1" focusable="false" xmlns="http://www.w3.org/2000/svg" xmlns:xlink="http://www.w3.org/1999/xlink"
	 x="0px" y="0px" viewBox="0 0 24 24" style="enable-background:new 0 0 24 24;" xml:space="preserve">
<style type="text/css">
	.st0{fill-rule:evenodd;clip-rule:evenodd;fill:#FFFFFF;}
</style>
<path class="st0" d="M11.7,16.7c-2.8,0-5-2.2-5.1-4.9c0-2.8,2.2-5,4.9-5.1c0,0,0.1,0,0.1,0c2.8,0,5,2.2,5,5S14.5,16.7,11.7,16.7
	 M20.1,13.6c-0.8-0.3-1.3-1-1.3-1.9c0-0.9,0.6-1.6,1.3-1.9c0.2-0.1,0.4-0.3,0.3-0.6c-0.2-0.7-0.5-1.4-0.8-2C19.4,7,19.2,7,18.9,7.1
	c-0.4,0.2-0.9,0.2-1.3,0.1c-0.7-0.2-1.2-0.7-1.4-1.4c-0.1-0.4-0.1-0.9,0.1-1.3c0.1-0.2,0-0.5-0.2-0.6c-0.6-0.4-1.3-0.6-2-0.8
	c-0.2-0.1-0.5,0.1-0.6,0.3c-0.3,0.8-1,1.3-1.9,1.3c-0.9,0-1.6-0.5-1.9-1.3C9.7,3.1,9.5,3,9.2,3c-0.7,0.2-1.4,0.5-2,0.8
	C7,4,7,4.2,7,4.4c0.4,1-0.1,2.2-1.1,2.6c-0.5,0.2-1,0.2-1.5,0C4.2,7,4,7.1,3.9,7.3C3.5,7.9,3.2,8.6,3,9.2C3,9.5,3.1,9.7,3.3,9.8
	c0.8,0.3,1.3,1,1.3,1.9c0,0.9-0.6,1.6-1.3,1.9C3.1,13.7,3,13.9,3,14.1c0.2,0.6,0.4,1.2,0.7,1.8c0.1,0.2,0.4,0.3,0.6,0.2
	c0.6-0.3,1.3-0.3,2.1,0.2c0.1,0.1,0.2,0.2,0.3,0.3c0.5,0.8,0.5,1.6,0.2,2.2c-0.1,0.2,0,0.5,0.2,0.6c0.7,0.4,1.4,0.7,2.1,0.9
	c0.2,0.1,0.5-0.1,0.6-0.3c0.3-0.8,1-1.4,1.9-1.4c0.9,0,1.6,0.6,1.9,1.4c0.1,0.2,0.3,0.4,0.6,0.3c0.7-0.2,1.4-0.5,2.1-0.9
	c0.2-0.1,0.3-0.4,0.2-0.6c-0.3-0.6-0.3-1.4,0.2-2.2c0.1-0.1,0.2-0.2,0.3-0.3c0.8-0.5,1.5-0.5,2.1-0.2c0.2,0.1,0.5,0,0.6-0.2
	c0.3-0.6,0.6-1.2,0.7-1.8C20.4,13.9,20.3,13.7,20.1,13.6"/>
</svg>
