<?xml version="1.0" encoding="utf-8"?>
<!-- Generator: Adobe Illustrator 24.0.3, SVG Export Plug-In . SVG Version: 6.00 Build 0)  -->
<svg version="1.1" id="Layer_1" focusable="false" xmlns="http://www.w3.org/2000/svg" xmlns:xlink="http://www.w3.org/1999/xlink"
	 x="0px" y="0px" viewBox="0 0 24 24" style="enable-background:new 0 0 24 24;" xml:space="preserve">
<style type="text/css">
	.st0{fill:#FFFFFF;}
</style>
<path class="st0" d="M15.7,14l3.7-3.6l-5.1-0.7L12,5.1L9.7,9.7l-5.1,0.7L8.3,14l-0.9,5.1l4.5-2.4l4.5,2.4C16.5,19.1,15.7,14,15.7,14
	z M12,19l-4.5,2.4c-0.8,0.4-1.7,0.1-2.1-0.6c-0.2-0.3-0.2-0.6-0.2-1l0.9-5l-3.6-3.6c-0.6-0.6-0.6-1.6,0-2.2C2.7,8.8,3,8.6,3.3,8.6
	l5-0.7l2.3-4.6c0.4-0.8,1.3-1.1,2.1-0.7C13,2.7,13.2,3,13.4,3.3l2.3,4.6l5,0.7c0.8,0.1,1.4,0.9,1.3,1.8c0,0.3-0.2,0.6-0.5,0.9
	l-3.6,3.6l0.9,5c0.1,0.8-0.4,1.6-1.3,1.8c-0.3,0.1-0.7,0-1-0.2L12,19z"/>
</svg>
