<?xml version="1.0" encoding="utf-8"?>
<!-- Generator: Adobe Illustrator 24.0.3, SVG Export Plug-In . SVG Version: 6.00 Build 0)  -->
<svg version="1.1" id="Layer_1" focusable="false" xmlns="http://www.w3.org/2000/svg" xmlns:xlink="http://www.w3.org/1999/xlink"
	 x="0px" y="0px" viewBox="0 0 24 24" style="enable-background:new 0 0 24 24;" xml:space="preserve">
<style type="text/css">
	.st0{fill:#FFFFFF;}
	.st1{fill-rule:evenodd;clip-rule:evenodd;fill:#1C63CE;}
</style>
<g>
	<circle class="st0" cx="12" cy="12" r="10"/>
	<path class="st1" d="M12.3,8.3c-0.4,0.4-0.4,1,0,1.4l1.3,1.3H8c-0.6,0-1,0.4-1,1s0.4,1,1,1h5.6l-1.3,1.3c-0.4,0.4-0.4,1,0,1.4
		c0.4,0.4,1,0.4,1.4,0l3-3c0.4-0.4,0.4-1,0-1.4l-3-3C13.3,7.9,12.7,7.9,12.3,8.3C12.3,8.3,12.3,8.3,12.3,8.3z"/>
</g>
</svg>
